<svg xmlns="http://www.w3.org/2000/svg" viewBox="0 0 93.74 93.46"><defs><style>.cls-1{fill:#ecd7d9;}</style></defs><g id="Calque_2" data-name="Calque 2"><g id="Calque_1-2" data-name="Calque 1"><path class="cls-1" d="M5.48,22.87l14,9.16-.18.24-14-9.15Z"/><path class="cls-1" d="M31,16.57l.41.12-1,.72h0a1.58,1.58,0,0,0-.63-.89l-4.62-3.19-3.06,2.26,1.68,5.36a1.61,1.61,0,0,0,.68.86l-1.84,1.36v-.43a1.51,1.51,0,0,0-.07-.48L19,10.88a1.37,1.37,0,0,0-.78-.85l1.92-1.42h0a1.33,1.33,0,0,0,.57,1l9.82,6.78A1.78,1.78,0,0,0,31,16.57ZM24.7,13l-4.34-3,1.58,5Z"/><path class="cls-1" d="M40.31,8.82A5.19,5.19,0,0,1,36.79,15l-5.06,1.63a2.21,2.21,0,0,0-.05-1.22L28.37,5.05a2.27,2.27,0,0,0-.68-1l5.12-1.65A1.81,1.81,0,0,1,35,3.29,1.74,1.74,0,0,1,34.89,5,5.12,5.12,0,0,1,40.31,8.82ZM30.46,6.24l3.32-1.06A1.21,1.21,0,0,0,33,2.88L29.72,4ZM38.66,9c-.77-2.4-2.32-4.06-4.71-3.29L30.63,6.76l2.8,8.7,3.32-1.06C39.15,13.62,39.44,11.38,38.66,9Z"/><path class="cls-1" d="M55.93,7.16A6.75,6.75,0,1,1,49.6,0,6.76,6.76,0,0,1,55.93,7.16Zm-1.67-.1C54.47,3.65,53,.77,49.56.57S44.32,3,44.12,6.45s1.29,6.28,4.7,6.49S54.06,10.47,54.26,7.06Z"/><path class="cls-1" d="M72.19,7.56l2,1,0,0a2.11,2.11,0,0,0-.78.84l-2.51,4.84a6.59,6.59,0,0,1-8.78,2.87,6.71,6.71,0,0,1-2.85-9.07l2.46-4.76a2.09,2.09,0,0,0,.24-1V2.26l2,1.05a2.16,2.16,0,0,0-.87.9L60.64,9c-1.54,2.95-1.34,6.1,1.6,7.64A5,5,0,0,0,69,14.42l3-5.7a2.22,2.22,0,0,0,.24-1.13Z"/><path class="cls-1" d="M77.11,11.93l.4-.37,6.58,7.1L83.7,19l-2.74-3-8.4,7.8a2.27,2.27,0,0,0-.65,1h0l-1.55-1.68a2.28,2.28,0,0,0,1.09-.56l8.4-7.79Z"/><path class="cls-1" d="M92.76,42.11l-12.34-2.2a1.57,1.57,0,0,0-1.06.2l-.26-1.17a1.45,1.45,0,0,0,1.05-.26l10.29-7.15,0-.15L79.19,33.84a2.36,2.36,0,0,0-1.08.57L78,34.09h0l-.35-1.58h0l-.07-.32a2.34,2.34,0,0,0,1.23.07l10.59-2.32a2.28,2.28,0,0,0,1.08-.58l.07.32h0l.46,2.09h0l.09.41a1.49,1.49,0,0,0-1,.25l-9.9,6.89,11.87,2.11a1.47,1.47,0,0,0,1.06-.21l.09.42h0l.46,2.09h0l.07.32A2.31,2.31,0,0,0,92.52,44L81.92,46.3a2.27,2.27,0,0,0-1.08.57l-.07-.32h0L80.42,45h0l-.07-.32a2.24,2.24,0,0,0,1.23.07l11.21-2.46Z"/><path class="cls-1" d="M89.83,60l-.54-.09,1.22-7.32-5.61-.93L84.18,56l-.54-.09.73-4.35-5.79-1-1.22,7.32-.54-.09,1.54-9.25a2.32,2.32,0,0,0,1.11.52l10.68,1.78a2.31,2.31,0,0,0,1.22-.13Z"/><path class="cls-1" d="M87.26,69.9,72.69,61.61l.16-.25,14.56,8.28Z"/><path class="cls-1" d="M64.31,75.81l-.42-.1.92-.76h0a1.59,1.59,0,0,0,.68.85l4.8,2.91,2.92-2.45-2-5.24a1.56,1.56,0,0,0-.72-.82l1.75-1.47,0,.43a1.33,1.33,0,0,0,.1.48l4.24,11.13a1.37,1.37,0,0,0,.83.8l-1.83,1.54v0a1.31,1.31,0,0,0-.63-.92L64.76,76A1.49,1.49,0,0,0,64.31,75.81ZM70.78,79l4.51,2.73L73.42,76.8Z"/><path class="cls-1" d="M55.46,84.12a5.21,5.21,0,0,1,3.14-6.34l4.95-1.93a2.26,2.26,0,0,0,.12,1.21l3.94,10.09a2.39,2.39,0,0,0,.74,1l-5,2a1.81,1.81,0,0,1-2.24-.77,1.79,1.79,0,0,1,0-1.67A5.13,5.13,0,0,1,55.46,84.12Zm1.64-.26c.91,2.35,2.56,3.91,4.9,3l3.25-1.27-3.33-8.51-3.24,1.26C56.33,79.25,56.18,81.51,57.1,83.86Zm8.35,2.23L62.2,87.36a1.2,1.2,0,1,0,.88,2.24l3.25-1.27Z"/><path class="cls-1" d="M40.12,86.82A6.76,6.76,0,1,1,47,93.46,6.76,6.76,0,0,1,40.12,86.82Zm1.68,0C41.85,90.21,43.56,93,47,92.9s5-2.86,5-6.27-1.77-6.17-5.18-6.12S41.74,83.37,41.8,86.79Z"/><path class="cls-1" d="M23.71,87.3l-2.09-.92,0,0a2.25,2.25,0,0,0,.73-.89l2.21-5a6.61,6.61,0,0,1,8.6-3.4A6.71,6.71,0,0,1,36.58,86l-2.17,4.9a2.29,2.29,0,0,0-.18,1V92L32.15,91A2.14,2.14,0,0,0,33,90.1l2.18-4.94c1.35-3,1-6.17-2.06-7.53a5,5,0,0,0-6.61,2.63l-2.61,5.87a2.21,2.21,0,0,0-.16,1.14Z"/><path class="cls-1" d="M18.53,83.23l-.38.39-7-6.69.38-.4,2.91,2.79L22.36,71A2.42,2.42,0,0,0,22.94,70h0l1.65,1.58a2.27,2.27,0,0,0-1.05.63l-7.92,8.28Z"/><path class="cls-1" d="M1.1,54.06,13.54,55.5a1.52,1.52,0,0,0,1.05-.27l.32,1.16a1.45,1.45,0,0,0-1,.32L4.05,64.48l0,.14,11-3.14a2.27,2.27,0,0,0,1-.63l.09.31h0l.44,1.56h0l.09.32a2.3,2.3,0,0,0-1.22,0L5.15,66a2.43,2.43,0,0,0-1.05.64L4,66.32H4l-.58-2h0l-.11-.4a1.49,1.49,0,0,0,1-.32l9.45-7.47-12-1.39a1.48,1.48,0,0,0-1,.27l-.12-.4h0L.09,52.5h0L0,52.19a2.3,2.3,0,0,0,1.22,0l10.43-3a2.25,2.25,0,0,0,1-.64l.09.32h0l.44,1.56h0l.09.31a2.4,2.4,0,0,0-1.22,0l-11,3.14Z"/><path class="cls-1" d="M1.09,36.73l.54.06L.85,44.16l5.66.6L7,40.37l.54.06-.46,4.38,5.84.62.77-7.38.54.06-1,9.32A2.33,2.33,0,0,0,12.08,47L1.32,45.85a2.39,2.39,0,0,0-1.21.2Z"/></g></g></svg>