<svg xmlns="http://www.w3.org/2000/svg" viewBox="0 0 84.93 125.9"><defs><style>.cls-1{fill:#333333;}</style></defs><g id="Calque_2" data-name="Calque 2"><g id="Calque_1-2" data-name="Calque 1"><path class="cls-1" d="M.71,4.3C12.43,16.55,23.25,29.7,32.13,44.18a150.83,150.83,0,0,1,19.61,48.2A116.15,116.15,0,0,1,54,121.73c-.17,3.22,4.83,3.21,5,0C60,103.7,56.47,85.59,50,68.8,43.59,52.35,34.43,37.17,23.67,23.23A278.62,278.62,0,0,0,4.24.76C2-1.57-1.52,2,.71,4.3Z"/><path class="cls-1" d="M23,96.24l28.8,25.55c2.07,1.84,4.85,5.38,8,3.64,1.2-.67,1.81-2,2.45-3.18l2.43-4.32L74,101.32,84.59,82.56c1.58-2.81-2.74-5.34-4.32-2.53q-8.7,15.42-17.38,30.85l-4.26,7.55-1.09,1.94a3.48,3.48,0,0,0-.45.79c-.14.66,1.36.21,1.24-.25s-1.18-1-1.49-1.33L55,117.92,41.69,106.14,26.54,92.7c-2.4-2.13-5.95,1.4-3.53,3.54Z"/></g></g></svg>
