<svg xmlns="http://www.w3.org/2000/svg" viewBox="0 0 165.06 55.61"><defs><style>.cls-1{fill:#333333;}</style></defs><g id="Calque_2" data-name="Calque 2"><g id="Calque_1-2" data-name="Calque 1"><path class="cls-1" d="M23.43,12.6c0,7.13-6.08,12.6-14.43,12.6H0v-.26c.54-.32.79-.86.79-2.12V2.41C.79,1.15.54.61,0,.29V0H9C17.35,0,23.43,5.51,23.43,12.6Zm-2.84,0C20.59,6,16.2.29,9,.29H3.64V24.94H9C16.2,24.94,20.59,19.26,20.59,12.6Z"/><path class="cls-1" d="M45.43,25.2H39.89v-.26c.93-.93.64-2.19-.36-4.82l-1.77-4.57H28.84l-1,2.74c-1.15,3.27-1.33,5,.18,6.65v.26H23.8v-.26a16.48,16.48,0,0,0,3.78-6.65L33,3.1,31.79,0h2.84l7,18.29a21.47,21.47,0,0,0,3.78,6.65Zm-7.78-9.94L33.12,3.49,28.94,15.26Z"/><path class="cls-1" d="M69.73,0V.29a5,5,0,0,0-2.27,4V25.2h-.54L49.79,3.28v17.6a5,5,0,0,0,2.3,4.06v.26H47.23v-.26a5,5,0,0,0,2.31-4.06V3L47.23,0h3.64l16.3,20.66V4.32a5.05,5.05,0,0,0-2.26-4V0Z"/><path class="cls-1" d="M76.25,2.41V22.82c0,1.26.25,1.8.82,2.12v.26H72.61v-.26c.54-.32.79-.86.79-2.12V2.41c0-1.26-.25-1.8-.79-2.12V0h4.46V.29C76.5.61,76.25,1.15,76.25,2.41Z"/><path class="cls-1" d="M95.36,20.84l-.79,4.36H80v-.26c.54-.32.8-.86.8-2.12V2.41c0-1.26-.26-1.8-.8-2.12V0H93.42l.75,4L94,4.14A9.88,9.88,0,0,0,86.11.29H83.59V10.91l9.07-.8V12l-9.07-.76V24.94h2.92a10.88,10.88,0,0,0,8.63-4.24Z"/><path class="cls-1" d="M113.68,20.84l-.79,4.36h-15v-.26c.58-.32.83-.86.83-2.12V2.41c0-1.29-.25-1.8-.83-2.12V0h4.47V.29c-.54.32-.8.83-.8,2.12V24.94h3.28a10.85,10.85,0,0,0,8.64-4.24Z"/><path class="cls-1" d="M136.4,25.2h-5.54v-.26c.93-.93.64-2.19-.36-4.82l-1.77-4.57h-8.92l-1,2.74c-1.15,3.27-1.33,5,.18,6.65v.26h-4.24v-.26a16.48,16.48,0,0,0,3.78-6.65L123.94,3.1,122.76,0h2.84l7,18.29a21.47,21.47,0,0,0,3.78,6.65Zm-7.78-9.94L124.09,3.49l-4.18,11.77Z"/><path class="cls-1" d="M23.43,42.8c0,7.13-6.08,12.6-14.43,12.6H0v-.25c.54-.33.79-.87.79-2.13V32.61c0-1.26-.25-1.8-.79-2.12V30.2H9C17.35,30.2,23.43,35.71,23.43,42.8Zm-2.84,0c0-6.62-4.39-12.31-11.59-12.31H3.64V55.15H9C16.2,55.15,20.59,49.46,20.59,42.8Z"/><path class="cls-1" d="M41.36,51l-.79,4.36H26v-.25c.54-.33.79-.87.79-2.13V32.61c0-1.26-.25-1.8-.79-2.12V30.2H39.42l.75,4-.18.14a9.86,9.86,0,0,0-7.88-3.85H29.59V41.11l9.07-.8v1.84l-9.07-.76V55.15h2.92a10.92,10.92,0,0,0,8.64-4.25Z"/><path class="cls-1" d="M70.45,33.22,69.37,37h-.25c-2.06-4.83-4.68-6.66-7.53-6.66-3.56,0-5.61,2-5.83,4.17-.68,7.2,14.76,4.83,14.76,13.83,0,4.28-3.85,7.3-9,7.3-4.29,0-7-1.44-9.76-3.56L52.88,48h.25c1.84,3.67,5.19,6.94,9.9,6.94,3.06,0,5.62-2,5.91-4.24.93-7.67-14.55-5.22-14.55-14.26,0-2.91,2.34-6.55,8.14-6.55C65.3,29.84,68.32,31.57,70.45,33.22Z"/><path class="cls-1" d="M99.17,42.73A13.07,13.07,0,1,1,86.11,29.84,13,13,0,0,1,99.17,42.73Zm-3.45-3c-1.94-6.33-7.27-10.9-13.28-9.07s-7.89,8.61-5.94,14.94,7.27,10.94,13.28,9.11S97.66,46.15,95.72,39.77Z"/><path class="cls-1" d="M122.54,30.2v.29c-1.15.61-1.51,2.48-1.51,4V46.94a8.35,8.35,0,0,1-8.64,8.67c-5.36,0-9.86-3-9.86-9.54V32.61c0-1.29-.26-1.8-.83-2.12V30.2h4.46v.29c-.54.32-.79.83-.79,2.12V46.07c0,5.94,3.06,9.54,8.28,9.11,4.43-.36,7.13-4.21,7.13-8.24v-12c0-2-.94-4.18-2.7-4.43V30.2Z"/><path class="cls-1" d="M142.63,33.22,141.55,37h-.25c-2.06-4.83-4.68-6.66-7.53-6.66-3.56,0-5.61,2-5.83,4.17-.68,7.2,14.76,4.83,14.76,13.83,0,4.28-3.85,7.3-9,7.3-4.29,0-7-1.44-9.76-3.56l1.08-4.1h.25c1.84,3.67,5.19,6.94,9.9,6.94,3.06,0,5.62-2,5.91-4.24.93-7.67-14.55-5.22-14.55-14.26,0-2.91,2.34-6.55,8.14-6.55C137.48,29.84,140.5,31.57,142.63,33.22Z"/><path class="cls-1" d="M165.06,55.4h-5.55v-.25c.94-.94.65-2.2-.36-4.83l-1.76-4.57h-8.93l-1,2.74c-1.15,3.27-1.33,5,.18,6.66v.25h-4.25v-.25a16.48,16.48,0,0,0,3.78-6.66l5.4-15.19-1.19-3.1h2.85l7,18.29a21.47,21.47,0,0,0,3.78,6.66Zm-7.78-9.94-4.54-11.77-4.17,11.77Z"/></g></g></svg>
