<svg viewBox="0 0 165.06 55.61" xmlns="http://www.w3.org/2000/svg"><g fill="#333"><path d="m23.43 12.6c0 7.13-6.08 12.6-14.43 12.6h-9v-.26c.54-.32.79-.86.79-2.12v-20.41c0-1.26-.25-1.8-.79-2.12v-.29h9c8.35 0 14.43 5.51 14.43 12.6zm-2.84 0c0-6.6-4.39-12.31-11.59-12.31h-5.36v24.65h5.36c7.2 0 11.59-5.68 11.59-12.34z"/><path d="m45.43 25.2h-5.54v-.26c.93-.93.64-2.19-.36-4.82l-1.77-4.57h-8.92l-1 2.74c-1.15 3.27-1.33 5 .18 6.65v.26h-4.22v-.26a16.48 16.48 0 0 0 3.78-6.65l5.42-15.19-1.21-3.1h2.84l7 18.29a21.47 21.47 0 0 0 3.78 6.65zm-7.78-9.94-4.53-11.77-4.18 11.77z"/><path d="m69.73 0v.29a5 5 0 0 0 -2.27 4v20.91h-.54l-17.13-21.92v17.6a5 5 0 0 0 2.3 4.06v.26h-4.86v-.26a5 5 0 0 0 2.31-4.06v-17.88l-2.31-3h3.64l16.3 20.66v-16.34a5.05 5.05 0 0 0 -2.26-4v-.32z"/><path d="m76.25 2.41v20.41c0 1.26.25 1.8.82 2.12v.26h-4.46v-.26c.54-.32.79-.86.79-2.12v-20.41c0-1.26-.25-1.8-.79-2.12v-.29h4.46v.29c-.57.32-.82.86-.82 2.12z"/><path d="m95.36 20.84-.79 4.36h-14.57v-.26c.54-.32.8-.86.8-2.12v-20.41c0-1.26-.26-1.8-.8-2.12v-.29h13.42l.75 4-.17.14a9.88 9.88 0 0 0 -7.89-3.85h-2.52v10.62l9.07-.8v1.89l-9.07-.76v13.7h2.92a10.88 10.88 0 0 0 8.63-4.24z"/><path d="m113.68 20.84-.79 4.36h-15v-.26c.58-.32.83-.86.83-2.12v-20.41c0-1.29-.25-1.8-.83-2.12v-.29h4.47v.29c-.54.32-.8.83-.8 2.12v22.53h3.28a10.85 10.85 0 0 0 8.64-4.24z"/><path d="m136.4 25.2h-5.54v-.26c.93-.93.64-2.19-.36-4.82l-1.77-4.57h-8.92l-1 2.74c-1.15 3.27-1.33 5 .18 6.65v.26h-4.24v-.26a16.48 16.48 0 0 0 3.78-6.65l5.41-15.19-1.18-3.1h2.84l7 18.29a21.47 21.47 0 0 0 3.78 6.65zm-7.78-9.94-4.53-11.77-4.18 11.77z"/><path d="m23.43 42.8c0 7.13-6.08 12.6-14.43 12.6h-9v-.25c.54-.33.79-.87.79-2.13v-20.41c0-1.26-.25-1.8-.79-2.12v-.29h9c8.35 0 14.43 5.51 14.43 12.6zm-2.84 0c0-6.62-4.39-12.31-11.59-12.31h-5.36v24.66h5.36c7.2 0 11.59-5.69 11.59-12.35z"/><path d="m41.36 51-.79 4.36h-14.57v-.25c.54-.33.79-.87.79-2.13v-20.37c0-1.26-.25-1.8-.79-2.12v-.29h13.42l.75 4-.18.14a9.86 9.86 0 0 0 -7.88-3.85h-2.52v10.62l9.07-.8v1.84l-9.07-.76v13.76h2.92a10.92 10.92 0 0 0 8.64-4.25z"/><path d="m70.45 33.22-1.08 3.78h-.25c-2.06-4.83-4.68-6.66-7.53-6.66-3.56 0-5.61 2-5.83 4.17-.68 7.2 14.76 4.83 14.76 13.83 0 4.28-3.85 7.3-9 7.3-4.29 0-7-1.44-9.76-3.56l1.12-4.08h.25c1.84 3.67 5.19 6.94 9.9 6.94 3.06 0 5.62-2 5.91-4.24.93-7.67-14.55-5.22-14.55-14.26 0-2.91 2.34-6.55 8.14-6.55 2.77-.05 5.79 1.68 7.92 3.33z"/><path d="m99.17 42.73a13.07 13.07 0 1 1 -13.06-12.89 13 13 0 0 1 13.06 12.89zm-3.45-3c-1.94-6.33-7.27-10.9-13.28-9.07s-7.89 8.61-5.94 14.94 7.27 10.94 13.28 9.11 7.88-8.56 5.94-14.94z"/><path d="m122.54 30.2v.29c-1.15.61-1.51 2.48-1.51 4v12.45a8.35 8.35 0 0 1 -8.64 8.67c-5.36 0-9.86-3-9.86-9.54v-13.46c0-1.29-.26-1.8-.83-2.12v-.29h4.46v.29c-.54.32-.79.83-.79 2.12v13.46c0 5.94 3.06 9.54 8.28 9.11 4.43-.36 7.13-4.21 7.13-8.24v-12c0-2-.94-4.18-2.7-4.43v-.31z"/><path d="m142.63 33.22-1.08 3.78h-.25c-2.06-4.83-4.68-6.66-7.53-6.66-3.56 0-5.61 2-5.83 4.17-.68 7.2 14.76 4.83 14.76 13.83 0 4.28-3.85 7.3-9 7.3-4.29 0-7-1.44-9.76-3.56l1.08-4.1h.25c1.84 3.67 5.19 6.94 9.9 6.94 3.06 0 5.62-2 5.91-4.24.93-7.67-14.55-5.22-14.55-14.26 0-2.91 2.34-6.55 8.14-6.55 2.81-.03 5.83 1.7 7.96 3.35z"/><path d="m165.06 55.4h-5.55v-.25c.94-.94.65-2.2-.36-4.83l-1.76-4.57h-8.93l-1 2.74c-1.15 3.27-1.33 5 .18 6.66v.25h-4.25v-.25a16.48 16.48 0 0 0 3.78-6.66l5.4-15.19-1.19-3.1h2.85l7 18.29a21.47 21.47 0 0 0 3.78 6.66zm-7.78-9.94-4.54-11.77-4.17 11.77z"/></g></svg>